PathFileType	4	(X/Y/Z)	c:/Users/goper/Files/vsCode/490R/osim_files/C10/C10_Fast_05.trc
DataRate	CameraRate	NumFrames	NumMarkers	Units                	OrigDataRate	OrigDataStartFrame	OrigNumFrames
250.00	250.00	5	36	mm	250.0	850	2266
                Frame#	Time	LPSIS			LASIS			LTH1			LTH2			LTH3			LTH4			LLFE			LMFE			LSH1			LSH2			LSH3			LSH4			LLMAL			LMMAL			LCAL			LMTP5			LTOE			LMTP1			RPSIS			RASIS			RTH1			RTH2			RTH3			RTH4			RLFE			RMFE			RSH1			RSH2			RSH3			RSH4			RLMAL			RMMAL			RCAL			RMTP1			RTOE			RMTP5		
		X1	Y1	Z1	X2	Y2	Z2	X3	Y3	Z3	X4	Y4	Z4	X5	Y5	Z5	X6	Y6	Z6	X7	Y7	Z7	X8	Y8	Z8	X9	Y9	Z9	X10	Y10	Z10	X11	Y11	Z11	X12	Y12	Z12	X13	Y13	Z13	X14	Y14	Z14	X15	Y15	Z15	X16	Y16	Z16	X17	Y17	Z17	X18	Y18	Z18	X19	Y19	Z19	X20	Y20	Z20	X21	Y21	Z21	X22	Y22	Z22	X23	Y23	Z23	X24	Y24	Z24	X25	Y25	Z25	X26	Y26	Z26	X27	Y27	Z27	X28	Y28	Z28	X29	Y29	Z29	X30	Y30	Z30	X31	Y31	Z31	X32	Y32	Z32	X33	Y33	Z33	X34	Y34	Z34	X35	Y35	Z35	X36	Y36	Z36

850	3.39600	833.98688	1002.61060	292.00287	679.38800	996.99353	416.30359	646.29352	762.92810	459.95117	622.18408	722.10327	454.66312	597.97516	788.84088	434.00104	582.34717	742.99304	430.99344	517.30792	509.36105	387.61487	511.70712	503.16699	269.21475	552.65961	410.85315	388.27094	541.36993	368.10764	399.93091	493.98642	425.47250	389.09705	492.05600	378.14902	393.84677	457.89746	106.54434	367.39978	0.00000	0.00000	0.00000	499.48102	33.94302	317.54645	341.16077	82.77155	395.58789	292.32736	121.32671	338.80045	312.62219	82.65385	289.94180	828.43378	1012.29559	210.80652	672.23779	988.62354	79.86533	784.85156	739.83655	48.68395	781.90387	695.73871	52.27118	724.53076	737.84314	43.84296	728.61462	693.45654	48.73000	798.09796	474.52951	122.81480	781.81433	469.44217	232.05910	887.60510	397.85727	117.84664	892.48254	354.68997	118.18509	825.78320	384.34729	122.35768	840.44788	343.90994	120.55532	922.72394	92.19418	178.03667	0.00000	0.00000	0.00000	982.61200	47.32680	219.97801	796.04230	26.03998	242.36287	758.93494	46.34346	204.86119	811.93719	32.95238	143.06671
851	3.40000	828.07471	1001.61884	292.72495	672.71558	994.96356	416.44644	640.33997	761.08655	459.96591	616.50555	720.11853	454.43930	591.93121	786.75385	433.79019	576.67474	740.84351	430.65472	511.39407	508.14114	387.62552	505.98615	502.09427	268.99365	544.07892	409.50696	388.59549	531.68304	367.10162	400.17188	485.82855	425.51254	388.75708	484.20859	378.28992	393.69888	439.94638	107.80444	367.12546	0.00000	0.00000	0.00000	481.62668	33.57529	318.55273	323.59531	86.86594	394.32394	276.86359	126.47820	336.71057	296.58154	87.22482	288.19589	822.61786	1011.55762	211.53070	667.00189	987.44897	79.83629	781.08716	739.53516	49.03267	778.53656	695.40271	52.50112	720.90515	737.10101	43.73687	725.85126	693.17285	48.02308	796.02942	474.18951	122.90504	779.57648	468.58774	232.30943	886.65350	398.50806	117.83286	891.16498	354.92938	118.49011	824.26666	384.29807	122.41562	839.10510	343.86179	120.65778	922.52307	92.51199	178.13721	0.00000	0.00000	0.00000	982.51019	47.49647	220.10477	795.94727	26.02228	242.36661	758.88959	46.27666	204.83646	811.70636	32.89919	142.95866
852	3.40400	822.52380	1000.80450	293.20447	666.20538	993.38074	416.61362	634.83521	759.34100	459.99127	610.95209	718.12183	454.31308	585.98969	784.59143	433.62387	571.07660	738.66614	430.43057	505.37408	506.88809	387.59085	500.33371	500.98398	268.70435	535.35010	408.02905	388.82632	521.80481	366.21539	400.31885	477.63824	425.55457	388.37668	475.61084	377.78018	393.62665	423.82498	108.91293	367.25833	0.00000	0.00000	0.00000	464.16135	33.37930	319.48160	306.56607	90.91215	392.99637	261.71964	131.71773	334.58322	281.09674	91.87391	286.34891	816.75055	1010.78436	212.23405	661.70984	986.26379	79.83426	777.35980	739.21460	49.42916	775.18884	695.09143	52.73367	717.22980	736.26410	43.69985	721.91071	691.97058	48.46660	793.96674	473.87112	123.01679	777.06885	468.14072	232.33331	884.47375	398.33798	118.54340	889.82874	355.22287	118.79943	822.80402	384.18399	122.51369	837.86920	343.86249	120.79162	922.02625	92.64025	178.29564	0.00000	0.00000	0.00000	982.39417	47.65562	220.20609	795.84857	25.91845	242.35789	758.86993	46.15848	204.83371	811.97925	32.91701	143.03694
853	3.40800	815.99957	999.57812	294.11005	659.64044	991.55902	416.76733	629.10657	757.47247	459.96005	605.52087	716.18390	454.19666	580.18530	782.41064	433.50214	565.58716	736.42078	430.27444	499.25446	505.48425	387.48514	494.66962	499.43729	268.06042	526.49945	406.67026	389.22565	511.94586	365.13242	400.79843	469.40640	425.60791	387.92377	467.09091	377.36780	393.59027	408.07730	110.20208	367.26587	0.00000	0.00000	0.00000	447.07965	33.39217	320.34149	290.00583	95.17631	391.74661	247.30423	136.81213	332.34225	266.06714	96.40939	284.48227	810.84802	1010.00739	212.90172	656.36005	985.10999	79.84943	774.50366	739.56281	49.35151	772.52655	695.20355	52.62031	713.63159	735.50879	43.59835	718.64575	691.24133	48.30508	791.92834	473.55478	123.12396	774.61560	467.63922	232.39145	882.85669	398.57828	118.93070	888.50067	355.52640	119.12460	821.28302	384.09235	122.61313	836.60840	343.86023	120.87804	921.80975	92.98530	178.40430	0.00000	0.00000	0.00000	982.27081	47.82084	220.33241	795.73419	25.85974	242.33818	758.80328	46.07743	204.80080	812.05353	32.91850	142.98991
854	3.41200	809.94141	998.57166	294.79117	652.80316	989.45581	416.88516	623.48169	755.59253	459.89960	600.22589	714.12488	454.18646	574.49048	780.18549	433.43274	560.22412	734.12488	430.20340	493.15268	504.28076	387.40497	490.53625	497.92935	268.29913	517.76459	405.40756	389.63235	502.19003	364.31937	401.08777	461.23502	425.74643	387.56580	451.40314	377.00522	382.97330	392.78964	111.60778	367.17755	0.00000	0.00000	0.00000	430.48444	33.59672	321.08328	273.83594	99.66770	390.31870	232.97795	142.04680	330.25397	251.36710	100.58414	282.82013	804.94647	1009.24475	213.56352	650.94257	983.89673	79.90699	769.96259	738.70721	50.30433	769.22998	694.95111	52.92443	710.03284	734.71332	43.55499	715.40588	690.52942	48.18250	790.20551	473.51730	123.05305	772.16748	467.09882	232.45749	881.23102	398.86362	119.27773	887.16101	355.84763	119.43160	819.67438	383.96048	122.75476	835.27222	343.87161	121.00923	921.56836	93.35084	178.54272	0.00000	0.00000	0.00000	982.12402	47.98550	220.42368	795.60199	25.77003	242.29758	758.77295	45.96643	204.75792	812.08105	32.91852	142.97684
